{
  "accessors": [
    {
      "bufferView": 2,
      "componentType": 5126,
      "count": 48523,
      "max": [
        0.4735890030860901,
        0.10477718710899353,
        0.22529098391532898
      ],
      "min": [
        -4.38760232925415,
        -3.7302019596099854,
        -2.2224040031433105
      ],
      "type": "VEC3"
    },
    {
      "bufferView": 2,
      "byteOffset": 582276,
      "componentType": 5126,
      "count": 48523,
      "max": [
        1.0,
        1.0,
        1.0
      ],
      "min": [
        -1.0,
        -1.0,
        -1.0
      ],
      "type": "VEC3"
    },
    {
      "bufferView": 1,
      "componentType": 5126,
      "count": 48523,
      "max": [
        1.0,
        1.0000001192092896
      ],
      "min": [
        -3.650784492492676e-07,
        0.0
      ],
      "type": "VEC2"
    },
    {
      "bufferView": 0,
      "componentType": 5125,
      "count": 153810,
      "type": "SCALAR"
    },
    {
      "bufferView": 2,
      "byteOffset": 1164552,
      "componentType": 5126,
      "count": 3354,
      "max": [
        -0.2061685174703598,
        -3.2623238563537598,
        0.22023354470729828
      ],
      "min": [
        -3.795948028564453,
        -3.4954395294189453,
        0.16733311116695404
      ],
      "type": "VEC3"
    },
    {
      "bufferView": 2,
      "byteOffset": 1204800,
      "componentType": 5126,
      "count": 3354,
      "max": [
        1.0,
        1.0,
        1.0
      ],
      "min": [
        -1.0,
        -1.0,
        -1.0
      ],
      "type": "VEC3"
    },
    {
      "bufferView": 1,
      "byteOffset": 388184,
      "componentType": 5126,
      "count": 3354,
      "max": [
        1.000000238418579,
        1.0
      ],
      "min": [
        0.0,
        0.0
      ],
      "type": "VEC2"
    },
    {
      "bufferView": 0,
      "byteOffset": 615240,
      "componentType": 5125,
      "count": 17280,
      "type": "SCALAR"
    },
    {
      "bufferView": 2,
      "byteOffset": 1245048,
      "componentType": 5126,
      "count": 118,
      "max": [
        0.07941198348999023,
        -0.08843684196472168,
        -0.26989316940307617
      ],
      "min": [
        -4.345046520233154,
        -3.599794626235962,
        -2.1497302055358887
      ],
      "type": "VEC3"
    },
    {
      "bufferView": 2,
      "byteOffset": 1246464,
      "componentType": 5126,
      "count": 118,
      "max": [
        1.0,
        1.0,
        1.0
      ],
      "min": [
        -1.0,
        -1.0,
        -1.0
      ],
      "type": "VEC3"
    },
    {
      "bufferView": 1,
      "byteOffset": 415016,
      "componentType": 5126,
      "count": 118,
      "max": [
        0.875,
        1.0
      ],
      "min": [
        0.125,
        0.0
      ],
      "type": "VEC2"
    },
    {
      "bufferView": 0,
      "byteOffset": 684360,
      "componentType": 5125,
      "count": 240,
      "type": "SCALAR"
    },
    {
      "bufferView": 2,
      "byteOffset": 1247880,
      "componentType": 5126,
      "count": 44081,
      "max": [
        0.11323533952236176,
        -0.22877001762390137,
        -0.014341473579406738
      ],
      "min": [
        -3.376974105834961,
        -3.337742328643799,
        -1.8251744508743286
      ],
      "type": "VEC3"
    },
    {
      "bufferView": 2,
      "byteOffset": 1776852,
      "componentType": 5126,
      "count": 44081,
      "max": [
        1.0,
        1.0,
        1.0
      ],
      "min": [
        -1.0,
        -1.0,
        -1.0
      ],
      "type": "VEC3"
    },
    {
      "bufferView": 1,
      "byteOffset": 415960,
      "componentType": 5126,
      "count": 44081,
      "max": [
        1.0,
        1.000276803970337
      ],
      "min": [
        -3.650784492492676e-07,
        0.0
      ],
      "type": "VEC2"
    },
    {
      "bufferView": 0,
      "byteOffset": 685320,
      "componentType": 5125,
      "count": 169080,
      "type": "SCALAR"
    },
    {
      "bufferView": 2,
      "byteOffset": 2305824,
      "componentType": 5126,
      "count": 15764,
      "max": [
        -0.9602370262145996,
        -0.3928554654121399,
        -0.04917755722999573
      ],
      "min": [
        -3.9657094478607178,
        -3.1976306438446045,
        -1.5082393884658813
      ],
      "type": "VEC3"
    },
    {
      "bufferView": 2,
      "byteOffset": 2494992,
      "componentType": 5126,
      "count": 15764,
      "max": [
        1.0,
        1.0,
        1.0
      ],
      "min": [
        -1.0,
        -1.0,
        -1.0
      ],
      "type": "VEC3"
    },
    {
      "bufferView": 1,
      "byteOffset": 768608,
      "componentType": 5126,
      "count": 15764,
      "max": [
        1.000000238418579,
        1.0000001192092896
      ],
      "min": [
        0.0,
        0.0
      ],
      "type": "VEC2"
    },
    {
      "bufferView": 0,
      "byteOffset": 1361640,
      "componentType": 5125,
      "count": 69354,
      "type": "SCALAR"
    },
    {
      "bufferView": 2,
      "byteOffset": 2684160,
      "componentType": 5126,
      "count": 3501,
      "max": [
        -1.0591171979904175,
        -2.9373250007629395,
        0.0435074120759964
      ],
      "min": [
        -1.8231382369995117,
        -3.2565112113952637,
        -0.09570954740047455
      ],
      "type": "VEC3"
    },
    {
      "bufferView": 2,
      "byteOffset": 2726172,
      "componentType": 5126,
      "count": 3501,
      "max": [
        1.0,
        1.0,
        1.0
      ],
      "min": [
        -1.0,
        -1.0,
        -1.0
      ],
      "type": "VEC3"
    },
    {
      "bufferView": 1,
      "byteOffset": 894720,
      "componentType": 5126,
      "count": 3501,
      "max": [
        1.0,
        1.0
      ],
      "min": [
        0.0,
        0.0
      ],
      "type": "VEC2"
    },
    {
      "bufferView": 0,
      "byteOffset": 1639056,
      "componentType": 5125,
      "count": 11580,
      "type": "SCALAR"
    },
    {
      "bufferView": 2,
      "byteOffset": 2768184,
      "componentType": 5126,
      "count": 2324,
      "max": [
        -1.7585409879684448,
        -2.7569518089294434,
        -0.03963446989655495
      ],
      "min": [
        -2.582296133041382,
        -2.8543055057525635,
        -0.152428537607193
      ],
      "type": "VEC3"
    },
    {
      "bufferView": 2,
      "byteOffset": 2796072,
      "componentType": 5126,
      "count": 2324,
      "max": [
        1.0,
        1.0,
        1.0
      ],
      "min": [
        -1.0,
        -1.0,
        -1.0
      ],
      "type": "VEC3"
    },
    {
      "bufferView": 1,
      "byteOffset": 922728,
      "componentType": 5126,
      "count": 2324,
      "max": [
        1.0,
        0.0
      ],
      "min": [
        0.0,
        0.0
      ],
      "type": "VEC2"
    },
    {
      "bufferView": 0,
      "byteOffset": 1685376,
      "componentType": 5125,
      "count": 6369,
      "type": "SCALAR"
    },
    {
      "bufferView": 2,
      "byteOffset": 2823960,
      "componentType": 5126,
      "count": 12233,
      "max": [
        0.19218873977661133,
        -0.7536167502403259,
        -0.05471181869506836
      ],
      "min": [
        -3.2354443073272705,
        -3.294921398162842,
        -1.6964870691299438
      ],
      "type": "VEC3"
    },
    {
      "bufferView": 2,
      "byteOffset": 2970756,
      "componentType": 5126,
      "count": 12233,
      "max": [
        1.0,
        1.0,
        1.0
      ],
      "min": [
        -1.0,
        -1.0,
        -1.0
      ],
      "type": "VEC3"
    },
    {
      "bufferView": 1,
      "byteOffset": 941320,
      "componentType": 5126,
      "count": 12233,
      "max": [
        1.0,
        1.0000001192092896
      ],
      "min": [
        0.0,
        0.0
      ],
      "type": "VEC2"
    },
    {
      "bufferView": 0,
      "byteOffset": 1710852,
      "componentType": 5125,
      "count": 34482,
      "type": "SCALAR"
    },
    {
      "bufferView": 2,
      "byteOffset": 3117552,
      "componentType": 5126,
      "count": 40,
      "max": [
        -2.199711322784424,
        -2.901944398880005,
        0.020886026322841644
      ],
      "min": [
        -3.161688804626465,
        -3.3333160877227783,
        0.013355821371078491
      ],
      "type": "VEC3"
    },
    {
      "bufferView": 2,
      "byteOffset": 3118032,
      "componentType": 5126,
      "count": 40,
      "max": [
        0.0,
        1.63475277759062e-08,
        1.0
      ],
      "min": [
        0.0,
        -1.6347511788694646e-08,
        1.0
      ],
      "type": "VEC3"
    },
    {
      "bufferView": 1,
      "byteOffset": 1039184,
      "componentType": 5126,
      "count": 40,
      "max": [
        0.625,
        0.5
      ],
      "min": [
        0.504241943359375,
        0.25
      ],
      "type": "VEC2"
    },
    {
      "bufferView": 0,
      "byteOffset": 1848780,
      "componentType": 5125,
      "count": 60,
      "type": "SCALAR"
    },
    {
      "bufferView": 2,
      "byteOffset": 3118512,
      "componentType": 5126,
      "count": 820,
      "max": [
        -1.1691349744796753,
        -1.2798330783843994,
        -0.025362372398376465
      ],
      "min": [
        -3.636732339859009,
        -3.1855945587158203,
        -1.9350672960281372
      ],
      "type": "VEC3"
    },
    {
      "bufferView": 2,
      "byteOffset": 3128352,
      "componentType": 5126,
      "count": 820,
      "max": [
        1.0,
        1.0,
        1.0
      ],
      "min": [
        -1.0,
        -1.0,
        -1.0
      ],
      "type": "VEC3"
    },
    {
      "bufferView": 1,
      "byteOffset": 1039504,
      "componentType": 5126,
      "count": 820,
      "max": [
        0.875,
        1.0
      ],
      "min": [
        0.125,
        0.0
      ],
      "type": "VEC2"
    },
    {
      "bufferView": 0,
      "byteOffset": 1849020,
      "componentType": 5125,
      "count": 1332,
      "type": "SCALAR"
    },
    {
      "bufferView": 2,
      "byteOffset": 3138192,
      "componentType": 5126,
      "count": 80,
      "max": [
        -2.8195478916168213,
        -1.2798330783843994,
        -1.117143988609314
      ],
      "min": [
        -3.636732339859009,
        -2.568720817565918,
        -1.9350672960281372
      ],
      "type": "VEC3"
    },
    {
      "bufferView": 2,
      "byteOffset": 3139152,
      "componentType": 5126,
      "count": 80,
      "max": [
        1.0,
        0.0,
        1.0
      ],
      "min": [
        -1.0,
        0.0,
        -1.0
      ],
      "type": "VEC3"
    },
    {
      "bufferView": 1,
      "byteOffset": 1046064,
      "componentType": 5126,
      "count": 80,
      "max": [
        0.625,
        1.0
      ],
      "min": [
        0.375,
        0.0
      ],
      "type": "VEC2"
    },
    {
      "bufferView": 0,
      "byteOffset": 1854348,
      "componentType": 5125,
      "count": 120,
      "type": "SCALAR"
    },
    {
      "bufferView": 2,
      "byteOffset": 3140112,
      "componentType": 5126,
      "count": 724,
      "max": [
        0.18741631507873535,
        -0.7536167502403259,
        -0.4324847459793091
      ],
      "min": [
        -0.02959100715816021,
        -3.294921398162842,
        -1.675513505935669
      ],
      "type": "VEC3"
    },
    {
      "bufferView": 2,
      "byteOffset": 3148800,
      "componentType": 5126,
      "count": 724,
      "max": [
        1.0,
        0.6066536903381348,
        0.5941406488418579
      ],
      "min": [
        -1.0,
        -0.6007139086723328,
        -0.6021946668624878
      ],
      "type": "VEC3"
    },
    {
      "bufferView": 1,
      "byteOffset": 1046704,
      "componentType": 5126,
      "count": 724,
      "max": [
        0.9900000095367432,
        1.0
      ],
      "min": [
        0.020915120840072632,
        0.0
      ],
      "type": "VEC2"
    },
    {
      "bufferView": 0,
      "byteOffset": 1854828,
      "componentType": 5125,
      "count": 1716,
      "type": "SCALAR"
    },
    {
      "bufferView": 2,
      "byteOffset": 3157488,
      "componentType": 5126,
      "count": 249,
      "max": [
        1.0,
        1.3932675123214722,
        1.0
      ],
      "min": [
        -1.0,
        0.0,
        -1.0
      ],
      "type": "VEC3"
    },
    {
      "bufferView": 2,
      "byteOffset": 3160476,
      "componentType": 5126,
      "count": 249,
      "max": [
        1.0,
        1.0,
        1.0
      ],
      "min": [
        0.0,
        0.0,
        -0.0
      ],
      "type": "VEC3"
    },
    {
      "bufferView": 1,
      "byteOffset": 1052496,
      "componentType": 5126,
      "count": 249,
      "max": [
        1.0,
        1.0000001192092896
      ],
      "min": [
        0.0,
        0.0
      ],
      "type": "VEC2"
    },
    {
      "bufferView": 0,
      "byteOffset": 1861692,
      "componentType": 5125,
      "count": 1011,
      "type": "SCALAR"
    }
  ],
  "asset": {
    "extras": {
      "author": "Pranav 3d (https://sketchfab.com/pranavsketchup2010)",
      "license": "CC-BY-4.0 (http://creativecommons.org/licenses/by/4.0/)",
      "source": "https://sketchfab.com/3d-models/gaming-pc-bbf4e48315b7459d85bd436e7210d09f",
      "title": "Gaming pc"
    },
    "generator": "Sketchfab-14.24.0",
    "version": "2.0"
  },
  "bufferViews": [
    {
      "buffer": 0,
      "byteLength": 1865736,
      "name": "floatBufferViews",
      "target": 34963
    },
    {
      "buffer": 0,
      "byteLength": 1054488,
      "byteOffset": 1865736,
      "byteStride": 8,
      "name": "floatBufferViews",
      "target": 34962
    },
    {
      "buffer": 0,
      "byteLength": 3163464,
      "byteOffset": 2920224,
      "byteStride": 12,
      "name": "floatBufferViews",
      "target": 34962
    }
  ],
  "buffers": [
    {
      "byteLength": 6083688,
      "uri": "scene.bin"
    }
  ],
  "materials": [
    {
      "doubleSided": true,
      "name": "Material.003",
      "pbrMetallicRoughness": {
        "baseColorFactor": [
          0.0,
          0.0,
          0.0,
          1.0
        ],
        "metallicFactor": 0.0,
        "roughnessFactor": 0.5
      }
    },
    {
      "doubleSided": true,
      "emissiveFactor": [
        0.5260155300741644,
        0.5452491591008863,
        1.0
      ],
      "name": "Material.005",
      "pbrMetallicRoughness": {
        "baseColorFactor": [
          0.023492199999999998,
          0.10510200000000006,
          0.7999999999999999,
          1.0
        ],
        "metallicFactor": 0.0,
        "roughnessFactor": 0.0
      }
    },
    {
      "doubleSided": true,
      "name": "Material.008",
      "pbrMetallicRoughness": {
        "baseColorFactor": [
          0.287043,
          0.287043,
          0.287043,
          1.0
        ],
        "roughnessFactor": 0.1
      }
    },
    {
      "doubleSided": true,
      "name": "Material.007",
      "pbrMetallicRoughness": {
        "baseColorFactor": [
          0.520433,
          0.520433,
          0.520433,
          1.0
        ],
        "roughnessFactor": 0.1
      }
    },
    {
      "doubleSided": true,
      "emissiveFactor": [
        1.0,
        0.3748552154962821,
        1.0
      ],
      "name": "good_light",
      "pbrMetallicRoughness": {
        "baseColorFactor": [
          0.3318932896019607,
          0.0,
          0.5699014287597353,
          1.0
        ],
        "metallicFactor": 0.0,
        "roughnessFactor": 0.8695876568983073
      }
    },
    {
      "doubleSided": true,
      "name": "Material.009",
      "pbrMetallicRoughness": {
        "baseColorFactor": [
          0.192435,
          0.192435,
          0.192435,
          1.0
        ],
        "roughnessFactor": 0.1
      }
    },
    {
      "doubleSided": true,
      "emissiveFactor": [
        0.068448,
        0.545715,
        0.151342
      ],
      "name": "Material.006",
      "pbrMetallicRoughness": {
        "baseColorFactor": [
          0.8,
          0.8,
          0.8,
          1.0
        ],
        "metallicFactor": 0.0,
        "roughnessFactor": 0.5
      }
    },
    {
      "doubleSided": true,
      "emissiveFactor": [
        0.3011689999999999,
        0.456076,
        1.0
      ],
      "name": "Material.001",
      "pbrMetallicRoughness": {
        "baseColorFactor": [
          0.05239696830374259,
          0.022234682399619142,
          0.2403176423630316,
          1.0
        ],
        "metallicFactor": 0.0,
        "roughnessFactor": 0.5
      }
    },
    {
      "doubleSided": true,
      "name": "Material.004",
      "pbrMetallicRoughness": {
        "baseColorFactor": [
          0.81623,
          0.81623,
          0.81623,
          1.0
        ],
        "metallicFactor": 0.0,
        "roughnessFactor": 0.1
      }
    },
    {
      "doubleSided": true,
      "emissiveFactor": [
        0.326073,
        0.0741514,
        0.66346
      ],
      "name": "good_light.001",
      "pbrMetallicRoughness": {
        "baseColorFactor": [
          0.8,
          0.8,
          0.8,
          1.0
        ],
        "metallicFactor": 0.0,
        "roughnessFactor": 0.0
      }
    },
    {
      "doubleSided": true,
      "name": "Material.012",
      "pbrMetallicRoughness": {
        "baseColorFactor": [
          0.210136,
          0.20709,
          0.349326,
          1.0
        ],
        "metallicFactor": 0.0,
        "roughnessFactor": 0.5
      }
    },
    {
      "doubleSided": true,
      "name": "Material.002",
      "pbrMetallicRoughness": {
        "baseColorFactor": [
          0.0,
          0.0,
          0.0,
          1.0
        ],
        "metallicFactor": 0.0
      }
    },
    {
      "doubleSided": true,
      "name": "Material.011",
      "pbrMetallicRoughness": {
        "baseColorFactor": [
          0.0102727,
          0.0102727,
          0.0102727,
          1.0
        ],
        "roughnessFactor": 0.5
      }
    }
  ],
  "meshes": [
    {
      "name": "Object_0",
      "primitives": [
        {
          "attributes": {
            "NORMAL": 1,
            "POSITION": 0,
            "TEXCOORD_0": 2
          },
          "indices": 3,
          "material": 0,
          "mode": 4
        }
      ]
    },
    {
      "name": "Object_1",
      "primitives": [
        {
          "attributes": {
            "NORMAL": 5,
            "POSITION": 4,
            "TEXCOORD_0": 6
          },
          "indices": 7,
          "material": 1,
          "mode": 4
        }
      ]
    },
    {
      "name": "Object_2",
      "primitives": [
        {
          "attributes": {
            "NORMAL": 9,
            "POSITION": 8,
            "TEXCOORD_0": 10
          },
          "indices": 11,
          "material": 2,
          "mode": 4
        }
      ]
    },
    {
      "name": "Object_3",
      "primitives": [
        {
          "attributes": {
            "NORMAL": 13,
            "POSITION": 12,
            "TEXCOORD_0": 14
          },
          "indices": 15,
          "material": 3,
          "mode": 4
        }
      ]
    },
    {
      "name": "Object_4",
      "primitives": [
        {
          "attributes": {
            "NORMAL": 17,
            "POSITION": 16,
            "TEXCOORD_0": 18
          },
          "indices": 19,
          "material": 4,
          "mode": 4
        }
      ]
    },
    {
      "name": "Object_5",
      "primitives": [
        {
          "attributes": {
            "NORMAL": 21,
            "POSITION": 20,
            "TEXCOORD_0": 22
          },
          "indices": 23,
          "material": 5,
          "mode": 4
        }
      ]
    },
    {
      "name": "Object_6",
      "primitives": [
        {
          "attributes": {
            "NORMAL": 25,
            "POSITION": 24,
            "TEXCOORD_0": 26
          },
          "indices": 27,
          "material": 6,
          "mode": 4
        }
      ]
    },
    {
      "name": "Object_7",
      "primitives": [
        {
          "attributes": {
            "NORMAL": 29,
            "POSITION": 28,
            "TEXCOORD_0": 30
          },
          "indices": 31,
          "material": 7,
          "mode": 4
        }
      ]
    },
    {
      "name": "Object_8",
      "primitives": [
        {
          "attributes": {
            "NORMAL": 33,
            "POSITION": 32,
            "TEXCOORD_0": 34
          },
          "indices": 35,
          "material": 8,
          "mode": 4
        }
      ]
    },
    {
      "name": "Object_9",
      "primitives": [
        {
          "attributes": {
            "NORMAL": 37,
            "POSITION": 36,
            "TEXCOORD_0": 38
          },
          "indices": 39,
          "material": 9,
          "mode": 4
        }
      ]
    },
    {
      "name": "Object_10",
      "primitives": [
        {
          "attributes": {
            "NORMAL": 41,
            "POSITION": 40,
            "TEXCOORD_0": 42
          },
          "indices": 43,
          "material": 10,
          "mode": 4
        }
      ]
    },
    {
      "name": "Object_11",
      "primitives": [
        {
          "attributes": {
            "NORMAL": 45,
            "POSITION": 44,
            "TEXCOORD_0": 46
          },
          "indices": 47,
          "material": 11,
          "mode": 4
        }
      ]
    },
    {
      "name": "Object_12",
      "primitives": [
        {
          "attributes": {
            "NORMAL": 49,
            "POSITION": 48,
            "TEXCOORD_0": 50
          },
          "indices": 51,
          "material": 12,
          "mode": 4
        }
      ]
    }
  ],
  "nodes": [
    {
      "children": [
        1
      ],
      "matrix": [
        1.0,
        0.0,
        0.0,
        0.0,
        0.0,
        2.220446049250313e-16,
        -1.0,
        0.0,
        0.0,
        1.0,
        2.220446049250313e-16,
        0.0,
        0.0,
        0.0,
        0.0,
        1.0
      ],
      "name": "Sketchfab_model"
    },
    {
      "children": [
        2
      ],
      "name": "root"
    },
    {
      "children": [
        3,
        16
      ],
      "matrix": [
        1.0,
        0.0,
        0.0,
        0.0,
        0.0,
        2.220446049250313e-16,
        1.0,
        0.0,
        0.0,
        -1.0,
        2.220446049250313e-16,
        0.0,
        0.0,
        0.0,
        0.0,
        1.0
      ],
      "name": "GLTF_SceneRootNode"
    },
    {
      "children": [
        4,
        5,
        6,
        7,
        8,
        9,
        10,
        11,
        12,
        13,
        14,
        15
      ],
      "matrix": [
        1.0,
        0.0,
        0.0,
        0.0,
        0.0,
        1.0,
        0.0,
        0.0,
        0.0,
        0.0,
        1.0,
        0.0,
        2.240776300430298,
        3.546700954437256,
        1.0540556907653809,
        1.0
      ],
      "name": "fast gaming pc_1"
    },
    {
      "mesh": 0,
      "name": "Object_4"
    },
    {
      "mesh": 1,
      "name": "Object_5"
    },
    {
      "mesh": 2,
      "name": "Object_6"
    },
    {
      "mesh": 3,
      "name": "Object_7"
    },
    {
      "mesh": 4,
      "name": "Object_8"
    },
    {
      "mesh": 5,
      "name": "Object_9"
    },
    {
      "mesh": 6,
      "name": "Object_10"
    },
    {
      "mesh": 7,
      "name": "Object_11"
    },
    {
      "mesh": 8,
      "name": "Object_12"
    },
    {
      "mesh": 9,
      "name": "Object_13"
    },
    {
      "mesh": 10,
      "name": "Object_14"
    },
    {
      "mesh": 11,
      "name": "Object_15"
    },
    {
      "children": [
        17
      ],
      "matrix": [
        50.0,
        0.0,
        0.0,
        0.0,
        0.0,
        50.0,
        0.0,
        0.0,
        0.0,
        0.0,
        50.0,
        0.0,
        2.83174991607666,
        -0.17642530798912048,
        -1.055854320526123,
        1.0
      ],
      "name": "ground_2"
    },
    {
      "mesh": 12,
      "name": "Object_17"
    }
  ],
  "scene": 0,
  "scenes": [
    {
      "name": "Sketchfab_Scene",
      "nodes": [
        0
      ]
    }
  ]
}
