<?xml version="1.0" encoding="UTF-8"?>
<svg width="153px" height="44px" viewBox="0 0 153 44" version="1.1" xmlns="http://www.w3.org/2000/svg" xmlns:xlink="http://www.w3.org/1999/xlink">
    <title>Group 4 Copy</title>
    <g id="Symbols" stroke="none" stroke-width="1" fill="none" fill-rule="evenodd">
        <g id="menu-light" transform="translate(-26.000000, -13.000000)" fill-rule="nonzero">
            <g id="Group-4-Copy" transform="translate(26.000000, 13.000000)">
                <g id="Group-2">
                    <rect id="Rectangle" fill="#10172A" x="0" y="0" width="43.9808363" height="44" rx="21.9904182"></rect>
                    <g id="Group" transform="translate(12.794425, 14.400000)">
                        <path d="M11.9240939,15.0389019 L17.4473479,15.0389019 C18.3140497,15.0389019 18.9004803,14.1757552 18.5605531,13.3971663 L13.0372992,0.719014293 C12.6197065,-0.239671431 11.2273558,-0.239671431 10.8097631,0.719014293 L5.28650928,13.3971663 C4.94770769,14.1757552 5.53301277,15.0389019 6.39971452,15.0389019 L11.9229684,15.0389019 L11.9240939,15.0389019 Z" id="Path" fill="#4E73DE"></path>
                        <path d="M6.73513935,15.0389019 L12.2583932,15.0389019 C13.125095,15.0389019 13.7115256,14.1757552 13.3715984,13.3971663 L7.84834458,0.719014293 C7.43075193,-0.239671431 6.03840119,-0.239671431 5.62080853,0.719014293 L0.0975546494,13.3971663 C-0.241246944,14.1757552 0.344058135,15.0389019 1.21075988,15.0389019 L6.73401377,15.0389019 L6.73513935,15.0389019 Z" id="Path" fill="#FFFFFF"></path>
                        <path d="M13.372724,13.3971663 L9.32961667,4.11669313 L5.28650928,13.3971663 C4.94770769,14.1757552 5.53301277,15.04 6.40084011,15.04 L12.2583932,15.04 C13.125095,15.04 13.7115256,14.1757552 13.372724,13.3971663 Z" id="Path" fill="#4E73DE" opacity="0.2"></path>
                    </g>
                </g>
                <g id="Group" transform="translate(55.975610, 13.600000)" fill="#10172A">
                    <path d="M2.06137271,12.2794582 C2.2624396,13.3346824 2.7362581,14.1528376 3.48632501,14.7357063 C4.23464352,15.3185751 5.15780281,15.6091182 6.25405446,15.6091182 C7.78216281,15.6091182 8.89415012,15.0351618 9.588268,13.8854666 L11.3017076,14.8765218 C10.1739846,16.65543 8.47628067,17.5448842 6.20684744,17.5448842 C4.36927092,17.5448842 2.87438231,16.9584505 1.72567843,15.7855831 C0.575226143,14.6127157 0,13.129698 0,11.3347474 C0,9.53979683 0.56298729,8.07638629 1.69071028,6.896389 C2.81843327,5.71639171 4.27660531,5.1246106 6.06872323,5.1246106 C7.76642713,5.1246106 9.15291447,5.73421644 10.2264368,6.95521062 C11.2999592,8.17442232 11.8367203,9.64318028 11.8367203,11.3579195 C11.8367203,11.657375 11.813991,11.9639604 11.7667841,12.2794582 L2.06137271,12.2794582 L2.06137271,12.2794582 Z M6.06872323,7.06037655 C4.98820726,7.06037655 4.09127409,7.37052688 3.38142055,7.99261005 C2.67156702,8.61469321 2.23096826,9.44532575 2.06137271,10.4845077 L9.79807692,10.4845077 C9.62848138,9.36689693 9.19662466,8.51665718 8.50075839,7.93378843 C7.80664051,7.35091968 6.99537933,7.06037655 6.06872323,7.06037655 L6.06872323,7.06037655 Z" id="Shape"></path>
                    <path d="M17.7428416,8.58439117 C17.7428416,9.03000948 17.9701346,9.38828661 18.4247207,9.65744007 C18.8793067,9.92659353 19.4213131,10.1565326 20.0507398,10.3436923 C20.6801666,10.5326344 21.3130903,10.7215766 21.9495106,10.9123012 C22.5859311,11.1030259 23.1244407,11.4595205 23.5667878,11.9835676 C24.0073865,12.5076148 24.2294344,13.1796073 24.2294344,14.0013274 C24.2294344,15.0725938 23.8238037,15.9299634 23.0125426,16.5752188 C22.2012813,17.220474 21.1627272,17.5431018 19.89688,17.5431018 C18.769157,17.5431018 17.8040359,17.2899905 17.0015167,16.7873331 C16.1989977,16.2828932 15.6272683,15.6144656 15.2880772,14.7802682 L17.0259944,13.7660409 C17.2113257,14.3328673 17.5592589,14.7802682 18.0680455,15.1118082 C18.5768322,15.4433483 19.1870264,15.6073357 19.8986284,15.6073357 C20.5630233,15.6073357 21.1102749,15.4789977 21.5438801,15.2187566 C21.9757367,14.960298 22.1925394,14.553894 22.1925394,14.0048924 C22.1925394,13.5485792 21.9687432,13.1831721 21.5194023,12.9086713 C21.0718099,12.6341704 20.5315519,12.3988839 19.9038736,12.2063768 C19.2744468,12.0138697 18.6415232,11.8195802 18.0051028,11.6252905 C17.3686824,11.431001 16.826676,11.0816362 16.3790836,10.5771963 C15.9314912,10.0727563 15.707695,9.42750102 15.707695,8.64143031 C15.707695,7.61829067 16.0975899,6.7769633 16.8773799,6.11566571 C17.6571697,5.45436814 18.6345296,5.1246106 19.8077112,5.1246106 C20.750103,5.1246106 21.5875902,5.34028986 22.3201731,5.77343086 C23.0527559,6.20657185 23.6052528,6.80904782 23.9759152,7.57907625 L22.2852049,8.54695923 C21.8690839,7.53986184 21.042087,7.03542192 19.8077112,7.03542192 C19.2359818,7.03542192 18.7499245,7.17088988 18.3477908,7.44004334 C17.945657,7.70919681 17.7463385,8.09064608 17.7463385,8.58260869 L17.7428416,8.58439117 Z" id="Path"></path>
                    <path d="M34.0484921,17.5466667 C32.3035813,17.5466667 30.8524028,16.953103 29.6949569,15.7641934 C28.537511,14.5752837 27.9570397,13.0993959 27.9570397,11.3365298 C27.9570397,9.57366382 28.5357626,8.09777597 29.6949569,6.90886631 C30.8524028,5.71995666 32.3035813,5.12639307 34.0484921,5.12639307 C35.1919508,5.12639307 36.2182661,5.40624136 37.1291866,5.96415549 C38.040107,6.5238521 38.7184892,7.27427333 39.16783,8.21898416 L37.4771197,9.21003927 C37.1833872,8.58082622 36.732298,8.07638629 36.1221037,7.69850197 C35.5119094,7.32061763 34.8212884,7.13167547 34.0484921,7.13167547 C32.8910462,7.13167547 31.9206799,7.53273196 31.1426385,8.33662739 C30.3628486,9.13874035 29.9729537,10.1387078 29.9729537,11.3347474 C29.9729537,12.530787 30.3628486,13.5075822 31.1426385,14.3096952 C31.9224283,15.1118082 32.8910462,15.5146472 34.0484921,15.5146472 C34.8212884,15.5146472 35.5154062,15.32927 36.1325941,14.9585155 C36.749782,14.5895435 37.2218522,14.0886686 37.5453076,13.4594555 L39.2587472,14.4754652 C38.7639478,15.4041339 38.0540942,16.1474252 37.1274382,16.7071218 C36.2007821,17.2650359 35.1727183,17.5448842 34.0467437,17.5448842 L34.0484921,17.5466667 Z" id="Path"></path>
                    <path d="M52.9959867,5.43119599 L55.0101524,5.43119599 L55.0101524,17.2382988 L52.9959867,17.2382988 L52.9959867,15.2080618 C51.9924007,16.7659434 50.5324803,17.5466667 48.6179737,17.5466667 C46.9971998,17.5466667 45.6142093,16.9441907 44.472499,15.7410213 C43.3290404,14.5360693 42.7590595,13.0690939 42.7590595,11.3365298 C42.7590595,9.60396587 43.3307888,8.13699038 44.472499,6.93203847 C45.6159577,5.72708655 46.9971998,5.12639307 48.6179737,5.12639307 C50.5324803,5.12639307 51.9924007,5.90533387 52.9959867,7.4632155 L52.9959867,5.43297846 L52.9959867,5.43119599 Z M48.8732413,15.5609914 C50.0464229,15.5609914 51.0272796,15.15637 51.8158115,14.3453447 C52.6025949,13.5343194 52.9977351,12.530787 52.9977351,11.3347474 C52.9977351,10.1387078 52.6043434,9.1351754 51.8158115,8.32415007 C51.029028,7.51312475 50.0481713,7.10850332 48.8732413,7.10850332 C47.6983113,7.10850332 46.7419323,7.51490722 45.9551488,8.32415007 C45.1683654,9.1351754 44.7732251,10.1387078 44.7732251,11.3347474 C44.7732251,12.530787 45.1666169,13.5343194 45.9551488,14.3453447 C46.7419323,15.15637 47.7157953,15.5609914 48.8732413,15.5609914 Z" id="Shape"></path>
                    <polygon id="Path" points="60.3830094 17.2382988 60.3830094 0 62.3989235 0 62.3989235 17.2382988"></polygon>
                    <path d="M77.3845261,5.43119599 L79.3986918,5.43119599 L79.3986918,17.2382988 L77.3845261,17.2382988 L77.3845261,15.2080618 C76.3809401,16.7659434 74.9210197,17.5466667 73.0065132,17.5466667 C71.3857393,17.5466667 70.0027488,16.9441907 68.8610385,15.7410213 C67.7175798,14.5360693 67.1475989,13.0690939 67.1475989,11.3365298 C67.1475989,9.60396587 67.7193282,8.13699038 68.8610385,6.93203847 C70.0044972,5.72708655 71.3857393,5.12639307 73.0065132,5.12639307 C74.9210197,5.12639307 76.3809401,5.90533387 77.3845261,7.4632155 L77.3845261,5.43297846 L77.3845261,5.43119599 Z M73.2617807,15.5609914 C74.4349623,15.5609914 75.415819,15.15637 76.2043509,14.3453447 C76.9911344,13.5343194 77.3862745,12.530787 77.3862745,11.3347474 C77.3862745,10.1387078 76.9928828,9.1351754 76.2043509,8.32415007 C75.4175675,7.51312475 74.4367107,7.10850332 73.2617807,7.10850332 C72.0868507,7.10850332 71.1304717,7.51490722 70.3436883,8.32415007 C69.5569047,9.1351754 69.1617646,10.1387078 69.1617646,11.3347474 C69.1617646,12.530787 69.5551563,13.5343194 70.3436883,14.3453447 C71.1304717,15.15637 72.1043348,15.5609914 73.2617807,15.5609914 Z" id="Shape"></path>
                    <path d="M91.1654759,5.1246106 C92.7862498,5.1246106 94.1692403,5.72708655 95.3109506,6.93025599 C96.4544093,8.13520791 97.0243902,9.6021834 97.0243902,11.3347474 C97.0243902,13.0673114 96.4526609,14.5342869 95.3109506,15.7392387 C94.1674919,16.9441907 92.7862498,17.5448842 91.1654759,17.5448842 C89.2509694,17.5448842 87.791049,16.7659434 86.787463,15.2062793 L86.787463,17.2365163 L84.7715488,17.2365163 L84.7715488,0.70764188 L86.787463,0.70764188 L86.787463,7.46143302 C87.791049,5.9035514 89.2509694,5.1246106 91.1654759,5.1246106 L91.1654759,5.1246106 Z M90.9102084,15.5609914 C92.0676543,15.5609914 93.0415173,15.15637 93.8283008,14.3453447 C94.6150844,13.5343194 95.0102245,12.530787 95.0102245,11.3347474 C95.0102245,10.1387078 94.6168328,9.1351754 93.8283008,8.32415007 C93.0415173,7.51312475 92.0676543,7.10850332 90.9102084,7.10850332 C89.7527625,7.10850332 88.75617,7.51490722 87.9693866,8.32415007 C87.1826031,9.1351754 86.787463,10.1387078 86.787463,11.3347474 C86.787463,12.530787 87.1808547,13.5343194 87.9693866,14.3453447 C88.75617,15.15637 89.7370267,15.5609914 90.9102084,15.5609914 Z" id="Shape"></path>
                </g>
            </g>
        </g>
    </g>
</svg>
